<?xml version="1.0" standalone="no"?>
<!DOCTYPE svg PUBLIC "-//W3C//DTD SVG 20010904//EN"
 "http://www.w3.org/TR/2001/REC-SVG-20010904/DTD/svg10.dtd">
<svg version="1.0" xmlns="http://www.w3.org/2000/svg"
 width="1002.000000pt" height="1002.000000pt" viewBox="0 0 1002.000000 1002.000000"
 preserveAspectRatio="xMidYMid meet">
<metadata>
Created by potrace 1.11, written by Peter Selinger 2001-2013
</metadata>
<g transform="translate(0.000000,1002.000000) scale(0.100000,-0.100000)"
fill="#000000" stroke="none">
<path d="M4718 9964 c-2 -2 -47 -6 -99 -9 -52 -3 -106 -8 -119 -10 -14 -3 -48
-7 -76 -10 -28 -2 -64 -6 -80 -9 -16 -3 -65 -10 -109 -16 -44 -6 -96 -15 -115
-20 -19 -5 -51 -11 -70 -14 -42 -7 -45 -7 -195 -41 -66 -15 -127 -31 -136 -36
-9 -4 -29 -10 -45 -13 -26 -5 -206 -59 -244 -74 -8 -3 -17 -6 -20 -7 -20 -5
-122 -41 -150 -53 -19 -9 -39 -17 -45 -18 -41 -10 -441 -189 -455 -204 -3 -3
-34 -20 -70 -38 -72 -36 -66 -32 -235 -133 -66 -39 -122 -74 -125 -78 -3 -3
-16 -12 -30 -20 -14 -7 -67 -43 -119 -80 -51 -36 -100 -70 -109 -76 -9 -5 -30
-22 -47 -37 -16 -16 -33 -28 -37 -28 -4 0 -13 -6 -20 -13 -7 -7 -53 -45 -103
-86 -49 -40 -126 -105 -169 -145 -88 -78 -336 -325 -336 -333 0 -3 -13 -17
-28 -31 -26 -26 -156 -179 -214 -253 -15 -19 -47 -59 -71 -90 -25 -31 -50 -67
-57 -80 -7 -13 -16 -26 -19 -29 -13 -10 -81 -110 -81 -119 0 -5 -3 -11 -8 -13
-22 -9 -233 -373 -319 -548 -56 -115 -113 -238 -113 -244 0 -2 -8 -21 -17 -42
-9 -22 -17 -41 -18 -44 -1 -3 -5 -14 -10 -25 -42 -102 -129 -349 -125 -357 0
-2 -8 -29 -19 -60 -11 -32 -17 -58 -14 -58 3 0 1 -6 -4 -12 -9 -12 -27 -75
-39 -133 -3 -17 -10 -50 -20 -87 -1 -5 -3 -11 -4 -15 -1 -5 -2 -11 -1 -15 0
-4 -3 -18 -8 -32 -6 -13 -12 -44 -16 -67 -3 -24 -8 -51 -10 -59 -2 -8 -7 -31
-10 -50 -4 -19 -11 -57 -16 -85 -5 -27 -11 -68 -13 -90 -2 -22 -6 -58 -10 -80
-24 -141 -40 -416 -39 -650 0 -172 11 -408 20 -450 2 -11 6 -45 8 -75 3 -30 7
-68 10 -85 2 -16 7 -53 10 -81 3 -28 8 -62 10 -75 5 -23 11 -58 20 -109 51
-295 160 -669 276 -952 28 -68 58 -141 66 -163 9 -22 21 -43 27 -47 6 -4 7 -8
3 -8 -5 0 1 -17 11 -38 11 -20 23 -44 26 -52 14 -36 160 -310 179 -335 17 -23
107 -179 107 -186 0 -4 4 -9 8 -11 5 -1 37 -46 72 -98 35 -52 66 -97 69 -100
3 -3 20 -25 36 -50 17 -25 36 -51 43 -58 7 -8 25 -30 40 -50 15 -21 29 -39 32
-42 4 -3 19 -23 36 -45 16 -21 36 -46 44 -55 8 -9 40 -45 70 -80 62 -73 369
-382 445 -449 28 -23 61 -53 75 -65 14 -12 48 -40 75 -61 28 -22 52 -42 55
-45 3 -3 34 -28 70 -55 36 -27 67 -52 70 -55 13 -15 335 -230 344 -230 3 0 24
-13 48 -29 126 -83 515 -276 713 -354 153 -60 292 -110 297 -107 2 1 17 -4 33
-10 17 -7 44 -16 60 -21 17 -4 62 -17 100 -29 39 -12 81 -23 93 -26 13 -3 49
-11 80 -20 52 -13 212 -47 272 -58 14 -2 52 -9 85 -14 33 -6 78 -13 100 -16
22 -3 49 -7 60 -10 11 -2 54 -7 95 -10 41 -4 95 -9 120 -12 122 -12 234 -16
435 -16 246 0 476 11 555 27 14 3 54 7 90 10 54 4 178 24 300 48 139 28 206
43 208 50 2 4 7 5 11 3 4 -3 57 9 117 25 60 16 116 31 124 34 43 11 243 76
258 84 9 5 20 10 24 10 12 2 35 11 158 59 137 53 204 83 368 165 181 91 200
101 214 115 7 7 20 12 29 12 10 0 19 3 21 8 4 10 174 112 187 112 6 0 11 4 11
8 0 4 24 23 54 41 47 28 140 93 171 119 6 5 24 17 40 28 33 21 31 19 130 99
141 113 153 123 265 223 97 87 268 259 350 352 36 40 72 81 80 89 63 67 274
344 365 481 28 41 53 77 58 78 4 2 7 9 7 16 0 8 8 24 18 37 11 13 32 47 47 74
16 28 53 93 82 145 48 83 161 310 206 410 65 145 208 542 221 612 3 13 5 23 6
23 1 0 3 7 5 15 2 8 11 40 19 70 8 30 17 66 20 80 3 14 10 45 17 70 25 101 63
303 75 390 3 25 7 56 10 70 2 14 7 48 9 75 3 28 7 68 9 90 21 193 28 658 13
850 -9 109 -23 248 -32 310 -19 136 -33 213 -55 325 -11 52 -21 104 -23 115
-2 11 -7 27 -10 35 -4 8 -8 27 -11 41 -10 64 -90 342 -107 371 -5 10 -9 24 -9
31 0 7 -11 42 -25 78 -14 35 -27 71 -28 79 -1 8 -5 20 -9 25 -3 6 -20 46 -37
90 -39 96 -52 125 -102 233 -21 46 -39 87 -39 93 0 5 -4 9 -10 9 -5 0 -10 6
-10 13 0 36 -294 543 -322 555 -5 2 -8 8 -8 13 0 17 -224 318 -315 424 -15 17
-49 57 -78 90 -101 118 -385 395 -517 505 -23 19 -47 40 -54 45 -22 20 -232
180 -281 215 -28 19 -51 38 -53 42 -2 4 -8 8 -13 8 -11 0 -72 42 -77 53 -2 4
-8 7 -14 7 -6 0 -25 11 -42 24 -17 12 -47 31 -66 41 -19 10 -37 21 -40 24 -9
13 -210 122 -370 202 -105 52 -151 74 -247 115 -18 8 -48 20 -65 28 -197 86
-718 241 -908 271 -19 3 -42 8 -50 10 -8 2 -31 7 -50 10 -19 3 -46 7 -60 10
-39 7 -81 14 -130 20 -25 3 -63 7 -85 10 -22 3 -67 7 -100 10 -33 3 -78 9
-100 12 -45 6 -682 13 -687 7z"/>
</g>
</svg>
