<?xml version="1.0" encoding="UTF-8" standalone="no"?>
<!-- Created with Inkscape (http://www.inkscape.org/) -->

<svg
   xmlns:dc="http://purl.org/dc/elements/1.1/"
   xmlns:cc="http://creativecommons.org/ns#"
   xmlns:rdf="http://www.w3.org/1999/02/22-rdf-syntax-ns#"
   xmlns:svg="http://www.w3.org/2000/svg"
   xmlns="http://www.w3.org/2000/svg"
   xmlns:sodipodi="http://sodipodi.sourceforge.net/DTD/sodipodi-0.dtd"
   xmlns:inkscape="http://www.inkscape.org/namespaces/inkscape"
   width="35.080215"
   height="34.036072"
   viewBox="0 0 35.080214 34.03607"
   version="1.1"
   id="svg8"
   inkscape:version="0.92.5 (2060ec1f9f, 2020-04-08)"
   sodipodi:docname="ground_dropdown.svg">
  <defs
     id="defs2" />
  <sodipodi:namedview
     id="base"
     pagecolor="#ffffff"
     bordercolor="#666666"
     borderopacity="1.0"
     inkscape:pageopacity="0.0"
     inkscape:pageshadow="2"
     inkscape:zoom="22.627417"
     inkscape:cx="19.445504"
     inkscape:cy="17.552564"
     inkscape:document-units="mm"
     inkscape:current-layer="layer1"
     showgrid="false"
     inkscape:window-width="1920"
     inkscape:window-height="1019"
     inkscape:window-x="0"
     inkscape:window-y="29"
     inkscape:window-maximized="1"
     fit-margin-top="0"
     fit-margin-left="0"
     fit-margin-right="0"
     fit-margin-bottom="0" />
  <metadata
     id="metadata5">
    <rdf:RDF>
      <cc:Work
         rdf:about="">
        <dc:format>image/svg+xml</dc:format>
        <dc:type
           rdf:resource="http://purl.org/dc/dcmitype/StillImage" />
        <dc:title></dc:title>
      </cc:Work>
    </rdf:RDF>
  </metadata>
  <g
     inkscape:label="Layer 1"
     inkscape:groupmode="layer"
     id="layer1"
     transform="translate(-0.52200393,-262.96393)">
    <path
       style="fill:#000000;stroke-width:0.6;stroke:#000000"
       d="m 11.795354,295.51647 -1.12136,-1.4835 -0.0736,-0.0455 -0.0736,-0.0455 v -0.0797 -0.0797 h 7.53534 7.535325 v 0.0469 0.0469 l -0.44945,0.56698 -0.44945,0.56698 -0.74443,0.99483 L 23.209709,297 h -5.146455 -5.14647 z m -5.0810901,-6.70801 -1.19758,-1.5875 6.2726901,-0.0217 6.2727,-0.0217 6.272685,0.0217 6.2727,0.0217 -1.19759,1.5875 -1.19758,1.5875 H 18.062074 7.9118439 Z m -4.96602,-6.55899 -1.16983997,-1.54248 -0.0282,-0.0662 -0.0282,-0.0662 H 8.4877239 16.453444 v -8.80533 -8.80533 h 1.60867 1.608655 v 8.80533 8.80533 h 7.96572 7.96573 l -0.0282,0.0662 -0.0282,0.0662 -1.16984,1.54248 -1.16984,1.54249 H 18.062154 2.9181639 Z"
       id="path3844"
       inkscape:connector-curvature="0" />
  </g>
</svg>
